<svg width="60" height="30" viewBox="0 0 60 30" fill="none" xmlns="http://www.w3.org/2000/svg">
<path fill-rule="evenodd" clip-rule="evenodd" d="M41.0675 24.8777C40.1293 24.8777 39.2912 24.8777 38.4406 24.8777C38.375 24.8922 38.3069 24.8899 38.2425 24.871C38.1781 24.8522 38.1195 24.8174 38.0721 24.7699C38.0247 24.7223 37.9902 24.6637 37.9715 24.5992C37.9528 24.5348 37.9506 24.4666 37.9652 24.4012C37.9527 23.5255 37.9652 22.6598 37.9652 21.7542H36.2139C34.6502 21.7542 34.8755 21.9268 34.863 20.3457C34.8505 19.7978 34.863 19.2511 34.863 18.6294H32.7613C32.5987 18.6294 32.4361 18.6294 32.2735 18.6294C32.201 18.6469 32.1252 18.6453 32.0536 18.6245C31.982 18.6037 31.9171 18.5646 31.8653 18.511C31.8135 18.4574 31.7765 18.3911 31.7581 18.3189C31.7397 18.2466 31.7407 18.1708 31.7607 18.099C31.7482 17.2534 31.7607 16.4065 31.7607 15.5334H28.8209V17.6937C28.8209 17.8588 28.8334 18.0227 28.8209 18.1866C28.8265 18.2455 28.8191 18.305 28.7991 18.3608C28.7791 18.4166 28.7469 18.4673 28.7052 18.5093C28.6634 18.5513 28.6129 18.5836 28.5572 18.604C28.5015 18.6243 28.4421 18.6321 28.3831 18.6269C27.7827 18.6381 27.1823 18.6269 26.5819 18.6269H25.7186V21.1712C25.7186 21.6466 25.6186 21.7455 25.1683 21.7492C24.3302 21.7567 23.492 21.7492 22.6164 21.7492C22.6164 22.6324 22.6289 23.4767 22.6164 24.3211C22.6164 24.7764 22.5164 24.8702 22.041 24.8727C21.2279 24.8727 20.4148 24.8727 19.5141 24.8727V25.6621C19.5141 26.2375 19.5266 26.8129 19.5141 27.3896C19.5141 27.9387 19.4641 27.9963 18.9137 27.9976C16.2242 27.9976 13.5347 27.9976 10.8452 27.9976C10.2697 27.9976 10.2197 27.9287 10.2197 27.3345C10.2072 26.5402 10.2072 25.7458 10.2072 24.8727H4.94086C4.80326 24.8727 4.66571 24.8727 4.52811 24.8727C4.45606 24.8906 4.38056 24.8895 4.30914 24.8692C4.23771 24.8489 4.17287 24.8102 4.12101 24.7571C4.06915 24.704 4.03206 24.6382 4.01351 24.5663C3.99495 24.4944 3.99552 24.4189 4.01519 24.3473C4.00268 23.5017 4.01519 22.6548 4.01519 21.7779H6.99239C7.02409 21.7518 7.05333 21.723 7.07988 21.6916C7.09443 21.6705 7.10309 21.6459 7.10493 21.6203C7.11744 20.6384 7.11745 19.6564 7.11745 18.6456H10.1947V15.5209H13.3096V12.3936H16.3868V6.15521C16.7496 6.15521 17.0998 6.14145 17.4376 6.13895C17.7753 6.13645 18.0881 6.13895 18.4258 6.13895H19.5016V3.01165H24.793C24.9306 3.01165 25.0681 3.01165 25.2057 3.01165C25.2783 2.99439 25.3542 2.99634 25.4258 3.0173C25.4973 3.03826 25.5621 3.07747 25.6139 3.13114C25.6657 3.1848 25.7026 3.25104 25.7209 3.32331C25.7393 3.39558 25.7385 3.4714 25.7186 3.54327V6.10765H31.7607V4.02985C31.7334 3.81231 31.7375 3.59195 31.7731 3.37561C31.8511 3.22345 31.9732 3.09836 32.1234 3.01661C32.2013 2.99648 32.2832 2.99648 32.3611 3.01661H37.9277V6.01885C37.9532 6.05335 37.9827 6.08484 38.0153 6.11269C38.0341 6.12616 38.0553 6.13586 38.0778 6.14139H41.0424V9.24121H44.1447V15.4958H47.2595V18.6018H53.4516C53.4892 19.6538 53.4517 20.6809 53.4767 21.7291H56.5664C56.5664 22.6773 56.5789 23.6056 56.5539 24.5213C56.5249 24.6008 56.4783 24.6728 56.4177 24.7319C56.3571 24.791 56.2839 24.8357 56.2036 24.8627C56.0179 24.8974 55.8279 24.9021 55.6408 24.8765H50.3619C50.3619 25.7422 50.3744 26.584 50.3619 27.4258C50.3619 27.8962 50.2617 28 49.8114 28C47.0719 28 44.3241 28 41.5679 28C41.1801 28 41.0675 27.875 41.0675 27.4697C41.055 26.6291 41.0675 25.7834 41.0675 24.8777Z" fill="white" stroke="black" stroke-width="1.5"/>
</svg>
