<svg width="60" height="30" viewBox="0 0 60 30" fill="none" xmlns="http://www.w3.org/2000/svg">
<path fill-rule="evenodd" clip-rule="evenodd" d="M41.0738 22.8696H34.9146V19.7441H31.8267V16.6221H28.7555V19.6864H25.7184V22.8441H19.5592V25.9881H13.2302V22.934C12.7247 22.8601 12.213 22.8396 11.7033 22.8729C11.1943 22.8593 10.6852 22.8729 10.1422 22.8729V19.7543H7.07121V16.5967H4V10.3322H6.98629C7.06207 9.81492 7.07919 9.29066 7.03724 8.76951C7.05421 8.26048 7.03724 7.73288 7.03724 7.17974H13.4C13.4 7.99587 13.417 8.84417 13.4 9.69255C13.4103 9.77297 13.4018 9.85475 13.3756 9.93146C13.3494 10.0082 13.306 10.0778 13.2486 10.1352C13.1913 10.1925 13.1217 10.2359 13.045 10.2621C12.9683 10.2884 12.8864 10.2967 12.806 10.2865C12.0085 10.3 11.2112 10.2865 10.3798 10.2865V13.3762H16.2504V10.943C16.2316 10.8541 16.2352 10.7618 16.2608 10.6745C16.2864 10.5872 16.3332 10.5077 16.3971 10.4429C16.461 10.3782 16.5398 10.3303 16.6268 10.3036C16.7137 10.2768 16.806 10.2722 16.8952 10.2899C17.523 10.278 18.1508 10.2899 18.7616 10.2899C19.4064 10.2899 19.5253 10.1626 19.5422 9.54331V7.2221C20.5773 6.93874 21.6631 7.47659 22.6132 6.88273V4.10688C22.6302 4.08482 22.6642 4.05429 22.6812 4.03563C22.7117 4.01557 22.7465 4.00334 22.7829 4H28.7555C28.7555 4.84837 28.7385 5.67134 28.7555 6.48578C28.735 6.57512 28.7373 6.66818 28.7623 6.75638C28.7872 6.84458 28.8339 6.92503 28.8982 6.99043C28.9624 7.05583 29.0422 7.1041 29.1299 7.13065C29.2177 7.1572 29.3105 7.16118 29.4002 7.14235C29.9092 7.15423 30.4183 7.14235 30.9273 7.14235C31.7248 7.14235 31.8097 7.06261 31.8267 6.29398V4.03739H37.9519C37.9519 4.79244 37.9519 5.56445 37.9689 6.33986C37.9689 7.05419 38.0537 7.1424 38.7833 7.14919C39.5129 7.15598 40.2424 7.14919 41.0229 7.14919V9.63321C41.004 9.72249 41.0076 9.81505 41.033 9.90267C41.0585 9.9903 41.1051 10.0703 41.1689 10.1356C41.2327 10.2009 41.3116 10.2493 41.3986 10.2768C41.4856 10.3043 41.578 10.31 41.6677 10.2932C42.007 10.3051 42.3295 10.2932 42.6519 10.2932C44.4844 10.2932 44.3147 10.0896 44.3147 12.0476V13.4051H50.1853V10.2932C49.4218 10.2932 48.6583 10.2932 47.8948 10.2932C47.3009 10.283 47.1821 10.1507 47.1651 9.4992V7.20346H53.5111V10.2796H56.5651V16.5457H53.5788C53.52 17.0638 53.5029 17.5859 53.5279 18.1068C53.5109 18.626 53.5279 19.1452 53.5279 19.7017H50.4739V22.8593H47.4027V26H41.0738V22.8696Z" fill="white" stroke="black" stroke-width="1.5"/>
</svg>
