<!-- Generated by IcoMoon.io -->
<svg version="1.1" xmlns="http://www.w3.org/2000/svg" width="1024" height="1024" viewBox="0 0 1024 1024">
<title></title>
<g id="icomoon-ignore">
</g>
<path d="M698.542 645.737h-105.445v-52.4h-53.813v-52.446h-52.306v51.507h-53.856v53.031h-105.943v52.943h-108.165v-51.77h-53.753v-53.134h-53.008v-53.881h-53.593c0-34.743-0.307-67.405 0.541-100.038 0.073-2.888 7.531-7.607 11.859-7.987 12.429-1.084 25.020-0.381 39.789-0.381v-51.552h107.274c0.643 3.987 1.608 7.62 1.783 11.284 1.975 40.12 1.944 40.501-38.048 41.382-11.099 0.247-15.925 3.222-15.808 14.99 0.453 46.319-3.129 36.413 34.948 37.292 18.294 0.425 36.617-0.323 54.895 0.191 10.675 0.307 15.807-2.432 16.319-14.58 1.565-37.41 2.046-37.85 38.516-38.774 11.597-0.292 15.778-4.103 15.048-15.561-0.761-11.796-0.162-23.695-0.162-37.586h52.453v-53.427c25.663 0 49.309-0.116 72.94 0.029 23.465 0.147 35.343 12.187 35.635 36.122 0.058 4.396 0.394 8.777 0.701 14.99h51.444c0-11.546 0.701-22.228-0.176-32.778-1.111-13.423 2.661-19.446 17.577-18.903 28.954 1.068 57.979 0.307 89.624 0.307v52.767h54.001c0 14.317 0.585 26.713-0.174 39.037-0.732 11.841 4.255 15.768 15.5 15.181 11.829-0.63 23.718-0.145 38.356-0.145 0 13.657 0.381 25.496-0.118 37.292-0.439 10.697 2.442 16.427 14.725 16.104 25.854-0.674 51.751-0.44 77.619-0.089 9.68 0.133 13.788-3.663 13.496-13.379-0.365-11.928-0.087-23.869-0.087-38.919-14.785 0-27.901 1.026-40.695-0.543-4.724-0.572-11.86-6.857-12.43-11.238-1.667-12.969-0.601-26.288-0.601-41.161h108.034v51.316h51.956v107.629h-51.166v53.984h-53.023v53.002h-54.221c0 14.52-0.396 26.361 0.116 38.158 0.469 10.667-2.295 16.425-14.607 16.118-26.498-0.674-53.023-0.688-79.505-0.014-12.209 0.307-15.193-5.057-14.607-15.959 0.657-11.766 0.16-23.636 0.16-38.011z"></path>
</svg>
