<!-- Generated by IcoMoon.io -->
<svg version="1.1" xmlns="http://www.w3.org/2000/svg" width="1024" height="1024" viewBox="0 0 1024 1024">
<title></title>
<g id="icomoon-ignore">
</g>
<path fill="#fff" stroke-linejoin="miter" stroke-linecap="butt" stroke-miterlimit="4" stroke-width="25.6" stroke="#000" d="M847.168 410.706v20.299h-40.564v20.28h-40.4v19.311c-0.485 0.437-0.486 0.614-0.647 0.729-0.196 0.125-0.415 0.201-0.645 0.225h-39.433v20.055h-40.724v20.282h-40.723v20.070h-40.402c-0.295 3.343-0.348 6.702-0.162 10.052-0.162 3.33 0 6.675 0 10.23h-40.562v20.282h-40.564v19.296c-0.172 0.282-0.391 0.532-0.647 0.742-0.13 0.131-0.3 0.217-0.485 0.242h-39.431v20.055h-40.724v20.347h-40.724v20.072h-40.402c-0.485 3.458-0.162 6.77-0.323 10.051v10.214h-40.402v20.297h-40.561v40.4h40.24v20.169h40.562v40.4h-40.4v20.072h-40.564c-0.162 3.475 0 6.755-0.162 10.035v10.295h-60.762v-19.91h-40.724v-20.282h-40.402v-20.055h-20.362v-121.397h20.039v-20.087h40.563c0.323-3.458 0.162-6.755 0.162-10.020v-10.23h40.4v-20.297h40.724v-20.282h40.564v-19.391c0.196-0.229 0.411-0.44 0.645-0.631 0.142-0.101 0.311-0.162 0.485-0.177h38.786c0.28-0.094 0.551-0.213 0.809-0.355v-19.732h40.561v-20.087h40.724c0.162-3.458 0-6.755 0-10.020v-10.228h40.562v-20.299h40.726v-20.33h40.4v-19.393c0.203-0.207 0.42-0.401 0.647-0.58 0.191-0.131 0.415-0.2 0.645-0.195h39.433v-20.087h40.724v-20.345h40.726v-20.055h40.4v-20.347h40.561v-40.402h-19.876v-19.393c-0.184-0.259-0.399-0.493-0.645-0.695-0.138-0.116-0.307-0.189-0.486-0.21h-39.593v-20.103h-20.202v-20.282h40.402v-20.12h20.2v-20.233h81.289v19.958h40.4v19.393c0.485 0.404 0.647 0.597 0.809 0.712 0.137 0.116 0.307 0.189 0.485 0.21h39.431v20.055h20.362v121.334h-20.038v20.055l-40.724 0.031zM176.832 531.91v20.25h-60.602v-282.566h19.877v-20.265h40.401v-19.393c0.485-0.42 0.647-0.599 0.809-0.712 0.058-0.070 0.133-0.126 0.217-0.162 0.085-0.038 0.174-0.053 0.266-0.048h39.433v-19.91h81.289v19.813h40.724v20.072h40.561c0.323 3.458 0.162 6.755 0.162 10.035v10.23h40.4v20.282h40.724v20.265h40.564v19.391c0.186 0.253 0.404 0.481 0.647 0.679 0.138 0.113 0.307 0.179 0.485 0.195h39.431v40.272h-40.24v20.282h-40.724v20.055h-60.762c-0.299-3.191-0.353-6.402-0.162-9.6-0.162-3.33 0-6.675 0-10.214h-40.562v-20.28h-40.723v-20.185h-40.402v-19.925h-20.362v161.232h-20.362v20.297h-20.524v20.055h-40.562v-0.145zM907.93 774.656h-19.876v20.152h-40.726v20.265h-40.724v20.072h-60.925c-0.162-3.005 0-6.303 0-9.568s-0.162-6.675-0.162-10.23h-40.4v-20.28h-40.723v-20.282h-40.402v-19.393c-0.234-0.208-0.451-0.435-0.647-0.678-0.196-0.121-0.418-0.193-0.647-0.21h-39.431v-20.072h-40.724v-20.282h-40.724v-20.055h-20.040c-0.485-3.458-0.162-6.77-0.323-10.068v-10.213h40.562v-20.267h40.724v-20.183h81.126v19.91h40.562v20.33h40.723v20.087h40.724v-141.001h20.2c0.324-3.458 0.002-6.77 0.162-10.052v-10.228h20.202v-20.412h40.724v-20.168h60.762v282.824zM461.255 835.501v-20.168h40.402v19.878h40.724v-19.91h40.402v19.133c0.224 0.285 0.498 0.526 0.807 0.712 0.058 0.073 0.13 0.133 0.213 0.172 0.085 0.039 0.177 0.058 0.271 0.055h39.433v20.055h40.724v20.183h20.2v20.265h-40.4v20.137h-40.402v20.265h-40.724v20.135h-81.289v-19.99h-40.562v-19.279c-0.176-0.275-0.394-0.521-0.647-0.727-0.137-0.121-0.304-0.2-0.483-0.227-13.090 0-26.182 0-39.433 0v-20.040h-40.724v-20.28h20.038v-20.265h40.724v-20.040h40.724v-0.065zM481.456 208.555v20.234h-20.040v-19.895h-40.724v-20.265h-40.562v-20.168c-3.395-0.226-6.787 0-10.020-0.097s-6.627 0-10.342 0v-19.974h20.038v-20.265h40.724v-20.265h40.724v-20.071h40.564v-20.201h20.2v19.926h40.724v20.265h40.402v19.393c0.183 0.26 0.401 0.493 0.647 0.695 0.196 0.12 0.416 0.192 0.645 0.21h39.433v20.055h40.562v20.265h-40.4v20.265h-40.564v20.038h-122.011v-0.145z"></path>
</svg>
