<!-- Generated by IcoMoon.io -->
<svg version="1.1" xmlns="http://www.w3.org/2000/svg" width="1024" height="1024" viewBox="0 0 1024 1024">
<title></title>
<g id="icomoon-ignore">
</g>
<path fill="#000" stroke-linejoin="miter" stroke-linecap="butt" stroke-miterlimit="4" stroke-width="25.6" stroke="#fff" d="M458.923 76.82h127.488v21.265h84.992v21.316h42.496v21.316h42.327v10.752c0.171 3.413-0.003 6.827 0.167 10.547h21.166v21.094h42.494v21.316h21.333v21.077h21.163v42.462h21.333v21.316h20.992v41.267c0.039 0.224 0.162 0.425 0.341 0.563 0.061 0.155 0.154 0.299 0.271 0.418 0.118 0.121 0.256 0.217 0.411 0.282h20.309v42.325h20.992v276.122h-21.163v63.573c-3.755 0-7.339 0-10.752 0s-6.997-0.119-10.581 0.102v21.197h-21.163v42.547h-21.333v21.316h-20.992v21.077h-21.333v21.333h-21.333v21.094c-3.755 0-7.168 0-10.752 0-3.528-0.137-7.060-0.061-10.581 0.222v21.060h-42.324v21.299h-42.499v21.316h-42.324v10.752c0 3.413 0.171 6.827 0 10.035h-254.805v-21.094h-63.829v-21.316h-21.333v-21.077h-42.327v-21.316h-21.333v-21.316h-20.99v-10.735c-0.171-3.413 0.169-6.929-0.343-10.564h-20.99v-21.026h-21.333v-21.299h-21.334v-21.094h-20.992v-42.547h-21.333v-63.778h-21.162v-56.525c0-9.421 0.341-18.859-0.171-28.262h-20.992v-106.121h21.162v-83.968c0.044-0.217 0.166-0.411 0.342-0.546 0.194-0.259 0.424-0.488 0.682-0.683h20.309v-42.325h21.333v-42.53h21.333v-42.308c3.755 0 7.168 0 10.752 0s6.827 0.137 10.411-0.102v-21.18h21.163v-21.316h21.333v-21.299h20.992v-10.752c0-3.413-0.171-6.827 0.171-10.53h42.324v-21.077h42.667v-21.299h42.499v-21.095h83.625c0.239-0.019 0.473-0.089 0.683-0.205 0.082-0.045 0.155-0.105 0.215-0.179 0.058-0.073 0.101-0.158 0.126-0.248v-20.651zM501.419 671.696h42.496v21.077h21.333v21.316h42.667v20.821c17.92 0.836 58.027 0.546 63.659-0.495v-84.258h21.163v-127.505h21.333v-148.719h20.99v-10.752c0-3.413 0.174-6.827-0.167-10.547h-21.166v-20.668h-21.333v20.941c-10.752 0-21.332 0-31.913 0s-21.163 0-31.915 0v21.265h-42.155v21.316h-63.829v21.316h-42.325v10.752c0 3.413 0.171 6.827-0.171 10.547h-42.325v21.009h-63.829v21.316h-42.496v21.077h-42.327v21.316h-42.153v21.299h20.992c0 3.738-0.171 7.253 0 10.752s-0.171 6.827 0 10.547h63.66v20.719h42.667v-21.129h42.494v-21.077h42.325v-21.316h21.333v-21.316h20.992v-10.735c0.171-3.413-0.171-6.929 0.341-10.564h42.155v-21.094h21.333v-20.821h42.155v21.026c-3.755 0-7.168 0-10.752 0s-6.827-0.137-10.581 0.102v21.214h-20.992v21.35h-21.163v10.735c0.198 3.521 0.14 7.052-0.171 10.564h-21.163v21.094h-21.163v21.316h-21.333v21.060c-3.755 0-7.339 0-10.752 0s-6.997-0.137-10.069 0v42.479h21.163v21.316h20.992v21.35z"></path>
</svg>
