<!-- Generated by IcoMoon.io -->
<svg version="1.1" xmlns="http://www.w3.org/2000/svg" width="1024" height="1024" viewBox="0 0 1024 1024">
<title></title>
<g id="icomoon-ignore">
</g>
<path fill="#000" stroke-linejoin="miter" stroke-linecap="butt" stroke-miterlimit="4" stroke-width="25.6" stroke="#fff" d="M202.735 444.137v-143.974c-0.089-0.265-0.104-0.55-0.043-0.823 0.061-0.271 0.196-0.522 0.389-0.724 0.195-0.203 0.437-0.348 0.707-0.422s0.555-0.072 0.823 0.005c5.803 0 11.607-0.171 17.41 0.102 2.56 0.119 2.901-0.836 2.901-3.174-0.171-19.195-0.171-38.395 0-57.6-0.451-1.983-0.335-4.053 0.34-5.973 2.051-0.843 4.296-1.103 6.485-0.751 11.264 0 22.53 0 33.794 0 3.413 0 3.413 0 3.413 3.191 0 5.393 0.171 10.786 0 16.162 0 2.27 0.171 3.413 2.901 3.209 5.803-0.29 11.433 0 17.236-0.102 1.536 0 2.050 0.393 2.050 1.929-0.085 1.637-0.085 3.279 0 4.915v148.19c-0.171 1.826 0.34 2.406 2.217 2.372 5.803-0.119 11.435 0 17.237-0.102 2.219 0 2.731 0.7 2.56 2.765 0 5.615 0.171 11.247 0 16.862-0.171 2.799 0.855 2.97 3.074 2.953 19.285 0 38.741 0 58.027 0 1.195 0 2.219 0 3.413 0 1.536-0.119 1.876 0.751 1.876 2.133-0.171 5.854 0 11.708-0.171 17.545 0 1.963 0.343 2.935 2.562 2.867 5.803-0.171 11.435 0 17.237 0 1.707 0 2.389 0.307 2.389 2.27-0.171 6.537 0 13.073-0.171 19.627-6.144 0.205-12.119 0.495-18.263 0.58-4.267 0-3.755 0-3.755 3.789 0 5.376 0 10.769 0.171 16.145 0.102 0.374 0.101 0.766-0.003 1.14-0.104 0.372-0.305 0.71-0.585 0.976-0.28 0.268-0.625 0.456-1.002 0.543s-0.771 0.070-1.14-0.048c-5.12-0.119-10.24 0-15.189 0-4.267 0-4.267 0-4.267 4.574v14.046c0 3.806 0 3.84-3.584 3.84-5.291 0-10.58 0.102-15.87 0-0.37-0.114-0.763-0.126-1.14-0.036-0.375 0.089-0.72 0.278-1 0.546-0.278 0.268-0.481 0.606-0.585 0.978-0.104 0.374-0.104 0.766-0.005 1.14 0.171 5.854 0 11.708 0.171 17.562 0.087 0.329 0.085 0.678-0.005 1.005-0.089 0.329-0.263 0.63-0.505 0.869-0.242 0.241-0.544 0.413-0.874 0.5-0.329 0.089-0.676 0.087-1.005-0.002-5.973-0.102-11.948 0-17.922 0-0.268-0.032-0.538 0-0.792 0.092-0.253 0.094-0.481 0.246-0.664 0.444s-0.317 0.437-0.389 0.696c-0.073 0.261-0.085 0.534-0.032 0.799 0 6.076 0.171 12.169 0 18.261 0 1.98 0.683 2.253 2.389 2.253 12.8 0 25.772 0 38.572 0 3.243 0 3.241 0 3.241 3.516l0.512 18.773 17.922 0.205c0.454 0.041 0.91 0.041 1.364 0 2.389-0.427 2.389 1.178 2.389 2.935-0.171 5.854 0 11.708-0.171 17.562-0.061 0.282-0.051 0.573 0.029 0.85 0.082 0.275 0.232 0.527 0.437 0.729 0.203 0.203 0.456 0.352 0.732 0.43s0.57 0.087 0.85 0.022c5.973 0 11.948 0 17.922 0 1.707 0 2.219 0.58 2.219 2.372-0.171 5.854 0 11.708 0 17.562-0.171 2.253 0.681 2.662 2.729 2.628 5.291-0.137 10.583 0 15.874 0 3.413 0 3.412 0 3.412 3.857v37.222c0 3.84 0.172 3.84 3.586 3.874h0.681l17.749 0.529c0 6.076 0.172 12.134 0.172 18.193v23.893c-0.123 0.317-0.152 0.664-0.089 0.997 0.065 0.335 0.22 0.645 0.451 0.894 0.23 0.251 0.526 0.432 0.853 0.522 0.329 0.090 0.676 0.089 1.004-0.007 5.632-0.119 11.435 0 17.237 0 0.37-0.113 0.766-0.121 1.142-0.020 0.374 0.099 0.712 0.302 0.978 0.584s0.451 0.633 0.527 1.012c0.079 0.381 0.048 0.775-0.087 1.138v31.607c0 10.069 0.171 20.139 0 30.208-0.171 2.679 0.681 3.072 3.070 3.004 5.461-0.171 11.095 0 16.556-0.119 2.219 0 2.558 0.87 2.558 2.85-0.171 17.318-0.171 34.64 0 51.968 0 4.147 0.171 8.294 0.341 12.442l11.607 0.239c3.243 0 6.484 0.171 9.556 0.256l0.514 9.66 0.512 12.407c3.925 0 7.849 0.154 11.774 0.137 3.072 0 6.316-0.222 9.388-0.341 0.171-3.226 0.341-6.451 0.341-9.677v-54.084c0-3.26 0.169-3.294 3.412-3.311 5.291 0 10.583-0.222 15.874 0 2.731 0.154 2.9-0.956 2.9-3.209v-62.515c-0.171-1.707 0.683-1.843 2.048-1.826 5.803 0 11.435 0 17.237 0 1.877 0 2.903-0.239 2.903-2.577-0.171-5.376-0.171-10.769-0.171-16.145 0-15.223 0.171-30.447 0-45.653 0-2.338 0.171-3.311 2.901-3.191 5.461 0.29 11.093 0 16.555 0.137 0.375 0.113 0.775 0.123 1.155 0.029 0.382-0.094 0.732-0.29 1.010-0.565 0.28-0.276 0.48-0.623 0.58-1.004s0.094-0.78-0.015-1.157c-0.171-11.691 0-23.398 0-35.106 0.029-1.64-0.029-3.28-0.171-4.915-0.171-1.894 0.683-2.355 2.389-2.321 5.803 0.102 11.604 0 17.236 0 2.219 0 2.731-0.785 2.56-2.799v-15.462c0-4.233 0-4.25 4.437-4.267s9.218 0 13.826 0c3.755 0 3.755 0 3.755-4.267 0.171-5.154 0.171-10.308 0-15.462 0-2.014 0.341-2.816 2.56-2.799 11.776 0.119 23.55 0 35.326 0 6.315 0 6.315 0 6.315-6.485 0-5.12 0.171-10.24 0.171-15.36 5.291-0.188 10.412-0.495 15.703-0.563 8.533 0 16.896-0.154 25.429 0 2.731 0 3.070-0.836 2.9-3.174 0-5.615 0-11.247 0.171-16.862 0-2.338-1.022-2.611-2.9-2.56-5.461 0.102-11.093 0-16.555 0-1.877 0-2.901-0.171-2.901-2.543 0.171-5.376 0.171-10.769 0.171-16.162 0-3.755-0.172-3.806-3.586-3.806h-37.204c-3.413 0-3.413 0-3.413-3.311v-16.862c0-1.843-0.512-2.355-2.219-2.321-6.144 0-12.117 0-18.091 0-1.536 0-1.877-0.614-1.877-2.048 0.171-5.688 0.171-11.31 0-16.862 0-3.533 0-3.567-3.755-3.584-4.949 0-10.069-0.085-15.189 0-2.048 0-3.244 0-3.074-2.901 0.171-6.298 0-12.629 0-18.944 6.144-0.222 12.29-0.495 18.434-0.649 3.584-0.119 3.755 0.751 3.755-3.686-0.171-5.393 0-10.786-0.171-16.162-0.104-0.377-0.104-0.775-0.003-1.152s0.302-0.72 0.58-0.995 0.623-0.469 1.002-0.567c0.379-0.097 0.777-0.090 1.152 0.017 10.411 0.102 20.649 0 31.060 0 9.899 0 19.797-0.119 29.696 0 2.56 0 3.074-0.768 2.903-3.157-0.171-5.615 0-11.23-0.171-16.845 0-2.321 0.853-2.645 2.901-2.594 4.949 0.119 10.068 0 15.188 0 4.096 0 4.096 0 4.096-4.591v-37.222c0-2.236 0.171-3.413 2.901-3.226 5.632 0.307 11.436 0 17.239 0.119 0.27 0.058 0.551 0.051 0.817-0.024 0.268-0.073 0.512-0.212 0.713-0.401 0.201-0.191 0.353-0.427 0.444-0.688 0.089-0.263 0.114-0.543 0.072-0.816 0-13.653-0.171-27.153 0-40.738 0.096-0.329 0.099-0.679 0.012-1.010-0.089-0.333-0.263-0.635-0.507-0.876s-0.55-0.411-0.884-0.495c-0.333-0.082-0.681-0.073-1.010 0.026-5.632 0.102-11.435 0-17.237 0-2.048 0-2.56-0.7-2.56-2.765 0-13.107 0.171-26.214 0-39.253-0.171-2.782 0.855-3.021 3.074-2.97 5.291 0.154 10.581 0 15.872 0 3.072 0 3.241 0 3.241-3.533 0-12.868 0-25.754-0.171-38.622 0-3.072 1.367-2.833 3.244-2.816 12.629 0 25.429 0 38.059 0 2.219 0 3.070 0.273 3.070 2.987-0.171 12.868 0 25.754-0.171 38.639 0 4.028 0.002 3.413 3.415 3.413 5.461 0 10.921 0 16.553 0 1.877 0 2.391 0.614 2.22 2.389-0.085 1.637-0.085 3.279 0 4.915v148.19c-0.171 1.57 0.51 1.929 2.046 1.911 5.461 0 10.923 0 16.555 0 3.413 0 3.415 0 3.415 3.84v235.998c0 1.877 0.171 3.738 0 5.615s0.853 1.826 2.219 1.826c5.632 0 11.435 0 17.237 0 1.877 0 2.729 0.256 2.729 2.577-0.171 5.376 0 10.769 0 16.145 0 15.223 0 30.447-0.171 45.653 0 2.338 0.343 3.311 3.074 3.174 5.632-0.256 11.435 0 17.237-0.102 0.266-0.060 0.543-0.049 0.804 0.031s0.498 0.224 0.688 0.422c0.188 0.198 0.324 0.44 0.391 0.705s0.065 0.541-0.005 0.806v40.738c0 1.894-0.512 2.355-2.219 2.321-6.485-0.154-12.972-0.154-19.287-0.205l-0.512-18.773c-0.171-3.516-0.171-3.55-3.925-3.55h-35.838c-4.437 0-4.437 0-4.437-4.267 0-5.393-0.171-10.769 0-16.145 0.171-2.253-1.196-2.065-2.562-2.065-13.141 0-26.281 0-39.252 0-1.877 0-2.56 0.444-2.389 2.321 0.171 3.738 0 7.492 0 11.247v28.791c0 2.167-0.512 2.731-2.56 2.679-5.803-0.137-11.607 0-17.41 0-1.877 0-2.219 0.734-2.219 2.441 0.171 5.854 0 11.708 0.171 17.562 0 2.338-0.853 2.594-2.901 2.56-5.461-0.119-10.923 0-16.555 0-1.877 0-2.901 0.188-2.731 2.56 0.171 5.837 0 11.708 0 17.562 0 1.707-0.169 2.458-2.217 2.441-13.312 0-26.626 0-39.938 0-1.536 0-2.048-0.41-2.048-1.946 0.171-6.076 0-12.169 0.171-18.261 0.080-0.328 0.073-0.671-0.020-0.995s-0.268-0.618-0.509-0.853-0.541-0.404-0.865-0.49c-0.326-0.087-0.669-0.085-0.995 0-5.803 0.102-11.435 0-17.237 0.102-2.219 0-2.729-0.768-2.558-2.799v-16.845c0-1.843 0-2.97-2.389-2.953-13.141 0.114-26.284 0.114-39.426 0-2.389 0-2.389 1.024-2.389 2.918v39.253c0 1.997-0.171 2.901-2.56 2.833-5.632-0.171-11.433 0-17.236 0-0.323-0.099-0.666-0.109-0.993-0.032-0.328 0.079-0.63 0.242-0.874 0.474-0.242 0.234-0.42 0.527-0.512 0.852s-0.096 0.667-0.010 0.993c0.171 6.093 0 12.186 0.171 18.261 0.051 0.276 0.034 0.563-0.051 0.833-0.087 0.268-0.237 0.512-0.44 0.708s-0.451 0.338-0.724 0.415c-0.271 0.077-0.556 0.085-0.833 0.024-5.973 0-11.947 0-17.92 0-1.877 0-2.219 0.7-2.219 2.423v39.339c0 3.191 0 3.191-3.413 3.243-0.853 0-1.877 0-2.731 0l-15.703 0.478c0 5.12-0.171 10.24-0.171 15.36 0 8.653-0.171 17.323 0 25.975 0 2.253-0.169 3.413-2.9 3.226-5.803-0.29-11.435 0-17.237-0.119-0.271-0.058-0.553-0.051-0.819 0.024-0.266 0.073-0.51 0.212-0.712 0.401-0.201 0.191-0.355 0.427-0.444 0.688-0.090 0.263-0.116 0.543-0.073 0.816 0.171 6.093 0 12.186 0.171 18.261 0.094 0.329 0.097 0.679 0.010 1.010-0.087 0.333-0.263 0.635-0.509 0.876-0.244 0.241-0.548 0.411-0.881 0.495-0.333 0.082-0.683 0.073-1.010-0.026-13.141 0-26.284 0-39.255 0-0.381 0.108-0.785 0.111-1.167 0.010-0.384-0.101-0.734-0.304-1.014-0.587-0.278-0.282-0.476-0.633-0.572-1.019-0.097-0.384-0.090-0.788 0.022-1.169 0.171-12.868 0.171-25.754 0.171-38.622-0.171-3.567-0.171-3.601-3.755-3.618-5.291 0-10.75-0.119-15.87 0-2.389 0-2.56-0.956-2.56-2.884 0.171-5.615 0-11.23 0-16.845 0.171-1.98-0.171-2.935-2.389-2.85-5.632 0.171-11.093 0-16.725 0.102-2.219 0-3.074-0.307-3.074-3.004 0.171-12.868 0.172-25.737 0.172-38.622 0-3.959 0-3.413-3.413-3.413-5.461 0-10.924 0-16.556 0-1.877 0-2.219-0.631-2.219-2.389v-39.253c0-3.209 0.002-3.243-3.412-3.26h-13.824c-4.779 0-4.779 0-4.779-5.257 0-4.932-0.171-9.847 0-14.763 0.171-2.458-1.026-2.492-2.903-2.475-12.8 0-25.771 0-38.571 0-2.048 0-2.901 0.358-2.731 2.628 0.171 5.837 0 11.708 0 17.545 0 1.707-0.34 2.423-2.217 2.389-5.973-0.102-11.947 0-17.92 0-0.28-0.063-0.57-0.056-0.845 0.022s-0.527 0.225-0.73 0.425c-0.205 0.201-0.353 0.449-0.435 0.724-0.084 0.273-0.097 0.563-0.038 0.843 0.171 5.854-0.171 11.725 0.171 17.562 0.171 2.748-0.855 3.004-3.074 2.987-12.629-0.119-25.429 0-38.059 0-1.877 0-3.241 0.239-3.241-2.833 0.171-6.468-0.171-12.971-0.341-19.456-6.144 0-12.46-0.256-18.604-0.154-2.219 0-3.070-0.239-3.070-2.987 0.171-13.107 0-26.214 0.171-39.253 0-2.082-0.514-2.816-2.732-2.748-5.803 0.137-11.435 0-17.237 0-1.877 0-2.219-0.58-2.219-2.372 0-5.854-0.171-11.708 0-17.562 0.171-2.253-0.681-2.645-2.729-2.628-12.8 0-25.771 0.154-38.571 0-2.901 0-2.901 1.041-2.901 3.243 0.171 5.12 0 10.24 0 15.36 0 3.857 0 3.857-4.096 3.874-5.12 0-10.24 0-15.189 0-2.048 0-2.903 0.324-2.903 2.611 0.171 5.854 0 11.708 0.171 17.562 0 1.707-0.512 2.406-2.219 2.389-13.482 0-26.794 0-40.106 0-1.536 0-1.877-0.512-1.877-1.997v-18.261c-0.171-1.946 0.683-2.304 2.39-2.27 5.632 0 11.435 0 17.238 0.085 2.219 0 2.39-0.887 2.39-2.85v-53.385c0-3.669 0.34-7.356 0.51-11.042l10.242-0.222 10.923-0.273c0.171-3.686 0.51-7.373 0.51-11.059v-97.621c0-3.413 0.002-3.413 3.244-3.413 5.461 0 10.923 0 16.555 0 0.319 0.094 0.659 0.099 0.981 0.012 0.321-0.085 0.613-0.259 0.843-0.502s0.389-0.543 0.457-0.869c0.070-0.326 0.048-0.666-0.063-0.98-0.085-1.637-0.085-3.279 0-4.915v-139.554zM511.983 50.989h84.99c3.243 0 3.244 0 3.415 3.26 0 5.393 0 10.786-0.171 16.162 0 2.441 0.51 3.14 3.070 3.123 18.603-0.137 37.207 0 55.81 0 2.389 0 4.608 0 6.997 0.102l0.512 7.492c0 4.215 0.171 8.431 0 12.646-0.171 1.963 0.681 2.287 2.388 2.253 5.632 0 11.435 0.085 17.237 0 2.219 0 2.56 0.904 2.56 2.867-0.171 5.376-0.171 10.769-0.171 16.145 0 3.413 0.172 3.516 3.244 3.516h33.792c0.985-0.718 2.193-1.061 3.408-0.968s2.357 0.616 3.22 1.476c0.864 0.86 1.391 1.999 1.49 3.214s-0.239 2.424-0.952 3.412l0.512 15.206c4.949 0 9.728 0.119 14.507 0.119 9.045 0 17.922 0 26.967 0 1.877 0 2.219-0.58 2.219-2.372 0-5.854 0.171-11.708 0-17.562-0.171-2.253 0.681-2.662 2.729-2.628 5.461 0.119 11.095 0.102 16.556 0 1.707 0 2.9 0 2.9 2.475-0.171 13.346-0.171 26.692 0 40.038 0 2.423-1.022 2.526-2.9 2.509-5.461-0.102-11.095 0-16.556-0.085-2.048 0-2.9 0.341-2.729 2.611 0.171 5.854 0 11.708 0 17.562 0 1.707-0.341 2.423-2.219 2.389-5.973-0.102-11.948 0-17.922 0-0.278-0.063-0.568-0.056-0.843 0.022s-0.526 0.225-0.729 0.425c-0.205 0.201-0.355 0.449-0.439 0.724-0.082 0.273-0.096 0.563-0.038 0.843 0.171 6.093 0 12.186 0.171 18.261 0 1.963-0.683 2.287-2.389 2.27-5.803 0-11.605 0-17.237 0-2.389 0-2.56 0.905-2.56 2.85 0.171 5.615 0 11.247 0 16.862 0.171 1.946-0.169 2.953-2.388 2.867-5.632-0.171-11.095 0-16.556-0.102-2.389 0-3.241 0.222-3.241 2.987 0.341 5.837 0.171 11.691 0.171 17.545 0.053 0.265 0.041 0.538-0.032 0.797-0.072 0.261-0.205 0.5-0.389 0.698s-0.411 0.35-0.664 0.444c-0.254 0.092-0.524 0.125-0.792 0.092-5.973 0-11.948 0-17.922 0-0.329-0.094-0.678-0.099-1.010-0.014s-0.635 0.258-0.879 0.498c-0.242 0.242-0.418 0.544-0.505 0.877-0.089 0.331-0.087 0.679 0.005 1.010 0.171 5.854 0 11.708 0.171 17.562 0.094 0.374 0.089 0.765-0.019 1.133-0.106 0.37-0.307 0.705-0.585 0.971-0.276 0.268-0.618 0.456-0.992 0.548-0.372 0.092-0.766 0.084-1.135-0.024-12.288-0.085-24.404 0-36.692 0-4.779 0-4.779 0-4.779 5.274-0.171 4.437 0 8.892-0.171 13.346 0 3.823 0 3.84-4.096 3.857-5.12 0-10.069 0-15.189 0-2.048 0-2.903 0.341-2.732 2.611 0.171 5.854 0 11.708 0 17.562 0 1.707-0.341 2.423-2.219 2.389-5.973-0.119-11.945 0-17.918 0-0.278-0.063-0.572-0.056-0.847 0.022s-0.524 0.225-0.729 0.425c-0.203 0.201-0.355 0.449-0.437 0.724-0.084 0.273-0.094 0.563-0.036 0.843 0.171 5.854 0 11.708 0.171 17.562 0 1.707 0.171 3.004-2.389 2.987-20.48-0.102-40.962-0.102-61.442 0-2.389 0-2.729-0.905-2.558-2.85 0.171-0.93 0.171-1.886 0-2.816-0.171-5.547-0.341-11.093-0.341-16.657l-16.555-0.205c-0.681 0.051-1.365 0.051-2.048 0-2.219-0.324-3.244 0.188-3.244 2.953 0.341 5.598 0.002 11.23 0.172 16.845 0.135 0.365 0.167 0.761 0.090 1.143-0.075 0.382-0.256 0.736-0.522 1.022s-0.606 0.49-0.981 0.592c-0.375 0.104-0.775 0.101-1.149-0.010-9.387-0.119-18.944 0-28.331 0-11.093 0-22.014 0-33.108 0-0.331 0.090-0.681 0.092-1.014 0.003-0.331-0.087-0.631-0.261-0.874-0.505-0.244-0.242-0.418-0.544-0.507-0.876-0.089-0.333-0.087-0.681 0.003-1.012 0.171-5.854 0.002-11.708 0.172-17.562 0.094-0.372 0.089-0.765-0.017-1.133-0.106-0.37-0.307-0.705-0.585-0.971s-0.623-0.452-0.997-0.543c-0.374-0.089-0.765-0.077-1.133 0.036-12.288 0-24.405 0-36.523 0-4.949 0-4.948 0-4.948-5.257v-13.346c0-3.84 0-3.857-4.267-3.874-4.949 0-10.069 0-15.189 0-0.37 0.113-0.765 0.126-1.14 0.036s-0.722-0.278-1-0.546c-0.278-0.268-0.48-0.606-0.584-0.978s-0.108-0.766-0.009-1.14c0.171-5.615 0-11.23 0.171-16.845 0-2.458-0.51-3.157-3.070-3.123-12.629 0.154-25.26 0-37.89 0-3.243 0-3.412 0.7-3.241-3.413 0-5.615-0.171-11.23 0-16.845 0-1.98-0.683-2.287-2.389-2.27-5.803 0-11.605 0-17.237 0-2.389 0-2.562-0.905-2.562-2.867 0.171-5.615 0-11.23 0-16.845 0.171-1.946-0.171-2.953-2.389-2.867-5.632 0.171-11.093 0-16.555 0.102-2.389 0-3.241-0.222-3.241-2.987 0.341-5.837 0.171-11.691 0.171-17.545 0.053-0.265 0.043-0.538-0.031-0.799-0.073-0.259-0.207-0.498-0.389-0.696-0.184-0.198-0.411-0.35-0.666-0.444-0.253-0.092-0.526-0.125-0.794-0.092-5.973 0-11.945 0-18.089 0-1.707 0-2.219-0.597-2.219-2.372 0.171-5.854 0-11.708 0.171-17.562 0-2.27-0.855-2.679-2.903-2.628-4.949 0.137-10.069 0-15.019 0-4.267 0-4.267 0-4.267-4.574v-35.84c0-4.523 0-4.54-4.267-4.557-5.291 0-10.58 0-15.87 0-0.268 0.057-0.544 0.049-0.809-0.023-0.263-0.072-0.507-0.207-0.708-0.393-0.2-0.186-0.353-0.417-0.445-0.674s-0.121-0.533-0.085-0.804c0.171-6.087 0.171-12.174 0-18.262-0.090-0.331-0.092-0.68-0.003-1.011 0.087-0.332 0.261-0.634 0.503-0.877s0.546-0.417 0.877-0.505c0.331-0.088 0.681-0.087 1.012 0.003 4.608 0.137 9.216 0 13.824 0 8.363 0 16.894 0 25.428 0 2.219 0 2.732 0.649 2.732 2.748-0.171 5.837 0 11.708-0.171 17.545 0 1.98 0.683 2.27 2.389 2.253 13.141 0 26.281 0 39.422 0 2.219 0 2.389-0.922 2.389-2.867l0.514-19.456c6.144 0 12.457-0.256 18.601-0.154 2.219 0 3.244-0.239 3.074-2.986-0.341-5.615 0-11.247-0.171-16.862-0.111-0.379-0.119-0.781-0.022-1.163 0.099-0.383 0.299-0.732 0.579-1.011 0.278-0.279 0.628-0.478 1.010-0.576s0.785-0.091 1.164 0.019c11.435 0.102 23.038 0 34.473 0 1.536 0 3.243-0.119 4.779 0 1.877 0.188 2.389-0.58 2.389-2.372-0.171-5.854 0-11.708-0.171-17.562-0.096-0.373-0.089-0.764 0.017-1.134s0.307-0.705 0.585-0.971c0.278-0.266 0.621-0.453 0.997-0.542 0.374-0.089 0.765-0.077 1.133 0.035 12.288 0.085 24.405 0 36.693 0 4.779 0 4.777 0 4.777-5.256v-13.346c0-3.84 0.171-3.857 4.267-3.857l84.14 0.068zM445.765 455.896c0-14.046-0.002-28.092-0.172-42.138 0-2.304 0.343-3.328 3.074-3.209 5.632 0.29 11.435 0 17.237 0.119 0.266 0.063 0.543 0.056 0.804-0.020 0.263-0.077 0.5-0.22 0.689-0.416s0.324-0.439 0.393-0.703c0.067-0.265 0.063-0.543-0.009-0.806 0-6.093 0.171-12.186 0-18.261-0.097-0.329-0.102-0.679-0.015-1.010 0.087-0.333 0.261-0.635 0.507-0.876s0.551-0.41 0.886-0.488c0.333-0.080 0.684-0.068 1.012 0.036 5.632 0.102 11.435 0 17.237 0.102 2.219 0 2.558-0.768 2.558-2.799-0.171-5.615 0-11.247-0.171-16.862 0-1.826 0-2.953 2.56-2.935 12.971 0.119 26.114 0.119 39.255 0 2.389 0 2.56 1.024 2.56 2.901-0.171 5.615 0 11.247-0.171 16.862 0 1.98 0.34 2.884 2.558 2.833 5.803-0.171 11.435 0 17.237-0.102 0.324-0.094 0.667-0.102 0.993-0.022 0.328 0.082 0.628 0.247 0.872 0.481 0.242 0.234 0.418 0.527 0.51 0.852s0.097 0.667 0.014 0.993c-0.171 6.076 0 12.169 0 18.261-0.070 0.265-0.070 0.541-0.002 0.807 0.068 0.265 0.201 0.507 0.389 0.705 0.188 0.2 0.425 0.346 0.686 0.428 0.261 0.080 0.536 0.096 0.804 0.039 5.973 0 11.948 0 17.922 0 1.877 0 2.219 0.683 2.219 2.423v39.253c0 3.209 0.169 3.209 3.412 3.26 1.024 0 1.877 0 2.731 0l15.703 0.461c0.171 5.359 0.341 10.718 0.341 16.060v47.053c0 3.806 0 3.84 3.413 3.84 5.632 0 11.092 0 16.553 0 1.536 0 2.048 0.358 2.048 1.929v40.721c0 1.809-0.341 2.406-2.219 2.372-5.803-0.102-11.605 0-17.237 0-2.219 0-2.729 0.666-2.729 2.748 0.171 5.615-0.171 11.247 0.171 16.862 0.171 2.765-0.853 3.038-3.072 2.97-5.632-0.154-11.093 0-16.555-0.102-2.389 0-2.56 0.922-2.56 2.867v39.253c0.171 1.963-0.172 2.953-2.391 2.867-5.632-0.171-11.092 0-16.553-0.102-2.389 0-3.244 0.239-3.244 2.987 0.171 12.868 0.171 25.737 0.171 38.622 0 3.413-0.169 3.413-3.241 3.413-5.291 0-10.583 0.171-15.874 0-2.56-0.119-3.070 0.649-3.070 3.106 0.171 19.2 0 38.4 0 57.6-0.029 1.64 0.029 3.28 0.171 4.915 0.039 0.273 0.010 0.55-0.082 0.809-0.090 0.259-0.242 0.495-0.444 0.683-0.2 0.188-0.444 0.323-0.71 0.396-0.265 0.073-0.543 0.082-0.812 0.024-5.973 0-11.947-0.119-17.92 0-2.048 0-2.219-0.853-2.219-2.492v-16.145c0-3.857 0-3.874-4.267-3.874-4.949 0-10.069-0.085-15.019 0-2.048 0-2.903-0.307-2.903-2.594 0.171-5.854 0.171-11.708 0.171-17.562 0-14.746-0.171-29.508 0-44.254 0-2.372-0.34-3.277-3.070-3.14-5.461 0.256-10.923 0-16.555 0.119-2.048 0-2.56-0.58-2.56-2.714v-35.106c-0.085-1.637-0.085-3.279 0-4.915 0.171-1.929-0.512-2.338-2.219-2.304-5.803 0-11.605 0-17.408 0-2.219 0-2.562-0.836-2.562-2.816 0-6.502-0.171-12.988-0.341-19.473l-18.601-0.239c-2.901 0-3.074 0-3.074-3.584v-16.879c0.097-0.27 0.119-0.56 0.063-0.84s-0.191-0.539-0.384-0.751c-0.193-0.21-0.44-0.365-0.715-0.445-0.273-0.080-0.565-0.085-0.841-0.012-5.973 0-11.945 0-17.918 0-1.707 0-2.389-0.478-2.219-2.338 0-6.537 0-13.073 0.171-19.61 6.144-0.188 12.116-0.393 18.26-0.563 3.584 0 3.584 0 3.584-3.823v-37.222c0-3.874 0.171-3.874 4.267-3.908h0.683l17.067-0.495c0-5.837 0.172-11.657 0.172-17.476v-26.607zM335.343 354.452c0-10.24 0-20.599-0.171-30.908 0-1.946 0.341-2.935 2.56-2.867 5.461 0.171 11.093 0.154 16.555 0 2.219 0 3.241 0.222 3.070 2.987-0.171 5.598 0.171 11.23 0 16.845-0.13 0.365-0.155 0.758-0.077 1.138s0.258 0.729 0.522 1.012 0.602 0.49 0.975 0.594c0.374 0.106 0.768 0.108 1.14 0.003 11.605-0.102 23.040 0 34.475 0 1.707 0 3.244 0.119 4.951 0s2.219 0.597 2.219 2.372v17.562c-0.171 2.27 0.681 2.679 2.729 2.628 4.949-0.137 10.069 0 15.189 0 4.096 0 4.096 0 4.096 4.557v13.346c0 4.523 0 4.54-4.096 4.557-5.12 0-10.24 0-15.189 0-2.048 0-2.9 0.358-2.729 2.611v17.562c0 1.707-0.341 2.423-2.219 2.389-6.485-0.154-12.971-0.119-19.285-0.171-0.171-6.246-0.514-12.476-0.684-18.773 0-3.584 0.002-3.618-3.582-3.618h-37.378c-3.072 0-3.070 0-3.070-3.499v-30.327zM644.421 388.158c-13.824 0-27.65 0-41.474 0-0.374 0.113-0.77 0.121-1.15 0.027s-0.727-0.287-1.005-0.561c-0.28-0.273-0.478-0.616-0.58-0.993-0.101-0.377-0.097-0.777 0.007-1.152 0.171-5.849 0.171-11.703 0-17.562-0.075-0.326-0.068-0.667 0.027-0.988 0.094-0.323 0.271-0.613 0.512-0.847s0.536-0.401 0.86-0.486c0.324-0.085 0.666-0.085 0.99 0 12.971 0 25.769 0 38.74 0 3.072 0 3.074 0 3.074-3.413 0.171-5.12 0-10.24 0.171-15.445 0-3.533-0.002-3.55 3.753-3.567 4.779 0 9.557 0 14.507 0 3.755 0 3.756 0 3.756-4.267v-16.162c0-1.417 0.341-2.082 1.877-2.065 5.973 0 11.945 0 17.918 0 0.324-0.090 0.667-0.094 0.995-0.010 0.326 0.082 0.626 0.249 0.869 0.485 0.241 0.236 0.416 0.529 0.51 0.853 0.092 0.324 0.097 0.666 0.015 0.993-0.171 5.854 0 11.708-0.171 17.562-0.104 0.377-0.108 0.773-0.005 1.152 0.101 0.377 0.302 0.72 0.58 0.993 0.28 0.275 0.625 0.468 1.005 0.561 0.379 0.094 0.777 0.085 1.152-0.027 5.803-0.137 11.435 0 17.237 0 1.877 0 2.219 0.751 2.219 2.441-0.171 5.849-0.171 11.703 0 17.562 0 2.355-0.855 2.594-2.732 2.56-5.632-0.119-11.092 0-16.553 0-2.048 0-2.903 0.205-2.903 2.56 0.171 5.615 0 11.247 0.171 16.862 0 2.304-0.34 3.209-3.070 3.174-13.653-0.358-27.477-0.273-41.301-0.273v0.034z"></path>
</svg>
