<!-- Generated by IcoMoon.io -->
<svg version="1.1" xmlns="http://www.w3.org/2000/svg" width="1024" height="1024" viewBox="0 0 1024 1024">
<title></title>
<g id="icomoon-ignore">
</g>
<path fill="#000" stroke-linejoin="miter" stroke-linecap="butt" stroke-miterlimit="4" stroke-width="25.6" stroke="#fff" d="M888.336 525.889c0 7.192-0.418 12.771 0.102 18.266 0.727 7.639-1.91 10.537-10.247 10.247-15.322-0.614-30.693-0.176-46.901-0.176v27.377c6.856 0 13.582 0.205 20.279-0.065 1.048-0.246 2.142-0.229 3.181 0.049 1.041 0.28 1.995 0.812 2.78 1.55 0.783 0.739 1.372 1.659 1.713 2.681 0.341 1.021 0.425 2.111 0.242 3.173 1.044 20.717 1.239 20.698-20.408 21.154-2.348 0.056-4.657 0.345-8.235 0.614v26.762h-57.933v27.397h-58.155c-0.41-8.579-0.829-17.234-1.285-26.912h-28.206v-27.134h-28.273v26.539h-28.643v27.657h-29.81v-27.013h-28.653v-27.89h-29.259v-27.406h-57.129v27.209h-28.943v27.518h-29.054c0 7.982-0.177 14.493 0.056 20.977 0.273 0.976 0.287 2.005 0.041 2.987s-0.744 1.884-1.444 2.615c-0.701 0.73-1.58 1.266-2.551 1.553s-2 0.316-2.987 0.084c-7.125-0.251-14.261-0.065-22.439-0.065v-27.358h-28.561v-27.583h-28.691v27.209c-7.451-0.326-14.915-0.23-22.356 0.288-1.485 0.416-2.845 1.193-3.954 2.263-1.111 1.070-1.939 2.4-2.408 3.867-0.553 6.816-0.655 13.664-0.307 20.494h-58.723v-26.735h-57.289v-28.030c-8.151 0-15.174-0.157-22.18 0.056-0.98 0.283-2.017 0.302-3.007 0.056s-1.898-0.748-2.632-1.456c-0.734-0.71-1.268-1.599-1.548-2.579-0.282-0.981-0.299-2.019-0.051-3.007 0.019-0.329 0.019-0.659 0-0.988-1.006-20.224-1.006-20.205 19.804-20.634 2.645-0.056 5.291-0.437 8.515-0.717v-26.614c-13.88 0-27.75 0.084-41.621 0-17.392-0.13-15.445 1.864-15.622-14.606-0.047-3.922 0-7.835 0-12.79h-28.309v-28.001h-28.393v-28.431h114.14v-27.991h57.856v-28.114h58.286c0-7.537 0.353-13.722-0.102-19.85-0.495-6.642 2.384-8.784 8.951-8.385 6.381 0.41 12.809 0.094 20.354 0.094v-27.75h41.834c12.66 0 25.329 0.167 37.989 0 0.976-0.263 2.005-0.268 2.985-0.017 0.981 0.249 1.879 0.749 2.611 1.449 0.73 0.7 1.27 1.575 1.563 2.543s0.335 1.995 0.114 2.983c-0.259 6.252-0.065 12.52-0.065 20.103l28.672 1.341v26.549l29.242 1.294v26.781h57.056v-27.199h29.222v-27.882h28.682v-27.145h86.956v26.931c7.098 0 13.153 0.42 19.125-0.102 7.834-0.681 11.513 1.657 10.609 9.818-0.348 6.002-0.389 12.018-0.119 18.024h57.81v28.114c15.928 0 30.935 0.493 45.887-0.186 9.371-0.428 13.245 2.319 12.006 11.597-0.365 5.371-0.403 10.759-0.111 16.135h114.763v28.486h-27.61v27.945l-29.213-0.019z"></path>
</svg>
