<!-- Generated by IcoMoon.io -->
<svg version="1.1" xmlns="http://www.w3.org/2000/svg" width="1024" height="1024" viewBox="0 0 1024 1024">
<title></title>
<g id="icomoon-ignore">
</g>
<path fill="#fff" d="M667.158 785.765c-0.51 10.791-0.915 19.275-1.394 29.107h-57.494c-0.464 10.102-0.869 18.946-1.319 28.477h-321.019v-27.459h-58.813c-0.48-10.283-0.884-18.765-1.364-29.107h-57.51c-0.495-10.267-0.915-18.765-1.41-29.063h-28.058c-0.51-10.281-0.929-18.78-1.409-28.582h-27.534v-27.638h115.785c0.464-10.073 0.869-18.917 1.333-29.078h57.182v-30.561h-86.559v-28.583h-29.167v-27.532h86.513v-30.532h-57.255c-0.509-10.312-0.928-18.809-1.408-28.597h-28.194v-29.076h-28.867v-56.042h25.96v26.86h60.162v-28.614h-27.878v-29.105h-29.211c-0.48-10.267-0.899-18.751-1.379-29.078h-28.014v-85.088h27.983v-28.643h28.133v56.625h87.967v28.612h58.815c0.48 10.267 0.884 18.765 1.364 29.107h57.494c0.51 10.283 0.944 18.765 1.41 28.358h59.563v-85.028h29.078v-29.032h29.587v-28.809l29.375-1.304c0.404-8.992 0.811-17.896 1.244-27.518h144.353v27.428h59.039v29.094h29.182c0.509 10.266 0.928 18.765 1.408 28.358h29.856c0.391-8.8 0.765-17.282 1.2-27.069l28.192-1.498c0.435-9.324 0.84-17.821 1.289-27.609h28.179v-28.628h27.337v83.62l-27.278 1.304v29.136h58.769v-26.977h27.624v54.407l-27.88 1.408c-0.42 9.293-0.809 17.792-1.273 27.593h-28.133v29.078h-29.587v28.703l-29.602 1.408v114.406l-29.092 1.393v56.625h-29.602v58.051h-29.571v28.703l-29.273 1.333c-0.435 9.324-0.809 17.806-1.26 27.534l-28.177 1.498c-0.435 9.353-0.84 17.852-1.289 27.639l-28.104-0.015zM-390.547 109.989l-6.926-5.456z"></path>
<path fill="none" stroke="#000" stroke-linejoin="miter" stroke-linecap="butt" stroke-miterlimit="4" stroke-width="25.6" d="M-390.547 109.989l-6.926-5.456M667.158 785.765c-0.51 10.791-0.915 19.275-1.394 29.107h-57.494c-0.464 10.102-0.869 18.946-1.319 28.477h-321.019v-27.459h-58.813c-0.48-10.283-0.884-18.765-1.364-29.107h-57.51c-0.495-10.267-0.915-18.765-1.41-29.063h-28.058c-0.51-10.281-0.929-18.78-1.409-28.582h-27.534v-27.638h115.785c0.464-10.073 0.869-18.917 1.333-29.078h57.182v-30.561h-86.559v-28.583h-29.167v-27.532h86.513v-30.532h-57.255c-0.509-10.312-0.928-18.809-1.408-28.597h-28.194v-29.076h-28.867v-56.042h25.96v26.86h60.162v-28.614h-27.878v-29.105h-29.211c-0.48-10.267-0.899-18.751-1.379-29.078h-28.014v-85.088h27.983v-28.643h28.133v56.625h87.967v28.612h58.815c0.48 10.267 0.884 18.765 1.364 29.107h57.494c0.51 10.283 0.944 18.765 1.41 28.358h59.563v-85.028h29.078v-29.032h29.587v-28.809l29.375-1.304c0.404-8.992 0.811-17.896 1.244-27.518h144.353v27.428h59.039v29.094h29.182c0.509 10.266 0.928 18.765 1.408 28.358h29.856c0.391-8.8 0.765-17.282 1.2-27.069l28.192-1.498c0.435-9.324 0.84-17.821 1.289-27.609h28.179v-28.628h27.337v83.62l-27.278 1.304v29.136h58.769v-26.977h27.624v54.407l-27.88 1.408c-0.42 9.293-0.809 17.792-1.273 27.593h-28.133v29.078h-29.587v28.703l-29.602 1.408v114.406l-29.092 1.393v56.625h-29.602v58.051h-29.571v28.703l-29.273 1.333c-0.435 9.324-0.809 17.806-1.26 27.534l-28.177 1.498c-0.435 9.353-0.84 17.852-1.289 27.639l-28.104-0.015z"></path>
</svg>
