<svg width="60" height="30" viewBox="0 0 60 30" fill="none" xmlns="http://www.w3.org/2000/svg">
<path fill-rule="evenodd" clip-rule="evenodd" d="M52.2588 16.4066V18.1313H48.9248V19.8587H50.5593V21.56C50.2976 21.5932 50.0331 21.601 49.7699 21.5833C49.5005 21.5907 49.222 21.5833 48.9248 21.5833V23.2856H45.5536V24.9935H42.0709V23.3218H40.4178C40.3856 23.0385 40.3763 22.7531 40.3899 22.4683C40.3806 22.1897 40.3899 21.9018 40.3899 21.5814C39.907 21.5814 39.4519 21.5749 38.9969 21.5814C38.774 21.5814 38.7183 21.7114 38.7833 21.9687C38.8129 22.1245 38.8285 22.2828 38.8298 22.4414V23.2977H37.6503C37.5112 23.2803 37.3703 23.2841 37.2323 23.3088C37.158 23.3339 36.9258 23.4017 37.1302 23.5874V24.999H35.3656V23.3088H33.6754V21.5842H32.013V19.8939H28.6511V21.5721H26.9609V23.2772H25.3077C25.2663 23.5594 25.2569 23.8455 25.2798 24.1298C25.2706 24.413 25.2798 24.6963 25.2798 24.999H23.4875C23.4619 24.6724 23.4774 24.3439 23.5339 24.0211C23.5896 23.8577 23.3668 23.6431 23.5896 23.4759C23.5065 23.4004 23.4084 23.3431 23.3017 23.3079C22.8559 23.2893 22.4194 23.3004 21.9365 23.3004C21.9272 23.0878 21.9365 22.8705 21.9179 22.655C21.9377 22.5667 21.9389 22.4752 21.9213 22.3865C21.9037 22.2977 21.8677 22.2136 21.8158 22.1396C21.796 22.0959 21.7874 22.048 21.7906 22.0002C21.7939 21.9524 21.8089 21.9062 21.8344 21.8656C22.0015 21.6994 21.7973 21.6752 21.7508 21.6028C21.6985 21.5789 21.6401 21.5718 21.5836 21.5824C21.1471 21.5824 20.7107 21.5824 20.2463 21.5824V23.2949H18.5653V25H15.1012C15.0761 24.7318 15.0699 24.4621 15.0827 24.1929C15.0734 23.9143 15.0827 23.6264 15.0827 23.3227H11.7393V21.5972H10.0676V19.868H11.7021V18.187C11.6969 18.1794 11.6907 18.1725 11.6836 18.1665C11.6666 18.1565 11.6476 18.1505 11.6279 18.1489H8.45167C8.42509 18.1419 8.39999 18.1303 8.37742 18.1146V16.4428H6.6964V14.7377H5.04339C5.00358 14.4557 4.99111 14.1705 5.0062 13.8861C4.99692 13.6075 5.0062 13.3196 5.0062 13.015H11.7207V11.791C11.7051 11.6494 11.7082 11.5064 11.73 11.3656C11.7579 11.2895 11.8137 11.0573 12.0087 11.2523C12.0786 11.2835 12.1566 11.292 12.2316 11.2765C13.0581 11.2765 13.8753 11.2765 14.6926 11.2765C14.746 11.2902 14.802 11.2898 14.8552 11.2755C14.9085 11.2611 14.9571 11.2333 14.9964 11.1945C15.0357 11.1558 15.0643 11.1077 15.0794 11.0547C15.0945 11.0016 15.0956 10.9456 15.0827 10.892C15.0827 10.5205 15.0734 10.1555 15.0827 9.78777C15.0741 9.73888 15.0777 9.6886 15.0931 9.64141C15.1085 9.59423 15.1352 9.55156 15.171 9.51716C15.2067 9.48276 15.2505 9.4577 15.2983 9.44415C15.346 9.43061 15.3964 9.42901 15.4449 9.4395C16.42 9.4395 17.4044 9.4395 18.4353 9.4395C18.4353 8.99744 18.4353 8.55536 18.4446 8.11237C18.4296 8.05921 18.4289 8.00303 18.4425 7.94951C18.4562 7.896 18.4837 7.84705 18.5223 7.80758C18.561 7.7681 18.6094 7.73951 18.6626 7.72471C18.7158 7.7099 18.7719 7.70939 18.8254 7.72323C19.2804 7.71673 19.7354 7.72323 20.2741 7.72323C20.2122 7.66973 20.1618 7.60438 20.1256 7.53102C20.1163 7.12239 20.1163 6.71278 20.1163 6.30415C20.1143 6.26456 20.1206 6.22501 20.1348 6.18801C20.149 6.151 20.1708 6.11734 20.1988 6.08926C20.2268 6.06119 20.2604 6.03932 20.2973 6.02498C20.3343 6.01065 20.3738 6.00419 20.4134 6.00605C20.5063 6.00048 20.6085 6.00605 20.7107 6.00605C22.0294 6.00605 23.3482 6.01907 24.667 6.0005C25.2521 5.99214 25.2984 6.08498 25.2798 6.5967C25.2613 6.96075 25.2798 7.32572 25.2798 7.72414C25.7349 7.72414 26.1715 7.71857 26.6079 7.72414C26.6569 7.71511 26.7073 7.71853 26.7546 7.734C26.802 7.74947 26.8446 7.77654 26.8788 7.81274C26.9129 7.84893 26.9375 7.89306 26.9502 7.94118C26.9629 7.9893 26.9634 8.03987 26.9516 8.08822C26.9609 8.51728 26.9516 8.94632 26.9516 9.42182C27.1652 9.42832 27.3787 9.43672 27.583 9.4395C27.7873 9.44229 27.9824 9.4395 28.1867 9.4395C28.586 9.44693 28.6232 9.48779 28.6325 9.88714C28.6325 10.2345 28.6232 10.5818 28.6325 10.9301C28.6239 10.9789 28.6275 11.0292 28.6429 11.0764C28.6583 11.1235 28.6851 11.1663 28.7209 11.2007C28.7567 11.2351 28.8003 11.2601 28.8481 11.2737C28.8958 11.2872 28.9462 11.2888 28.9947 11.2783C29.8769 11.2783 30.7593 11.2783 31.6323 11.2783C31.6813 11.2886 31.732 11.2867 31.7801 11.2727C31.8282 11.2587 31.8721 11.2331 31.9079 11.1981C31.9437 11.1631 31.9703 11.1199 31.9854 11.0722C32.0005 11.0244 32.0035 10.9737 31.9944 10.9245C31.9944 10.5772 31.9851 10.2289 31.9944 9.88152C31.9944 9.49332 32.0502 9.44413 32.4403 9.44041C32.8303 9.4367 33.2389 9.44041 33.6754 9.44041C33.6754 8.97606 33.6661 8.52751 33.6754 8.08266C33.6629 8.03449 33.6628 7.98391 33.6754 7.93574C33.6879 7.88757 33.7126 7.8434 33.747 7.80746C33.7815 7.77153 33.8246 7.74501 33.8722 7.73043C33.9198 7.71585 33.9704 7.71366 34.019 7.72414C34.4555 7.71764 34.892 7.72414 35.3471 7.72414V6.40726C35.3564 6.098 35.4306 6.00885 35.7185 6.00792C37.2044 6.00792 38.6811 6.00792 40.1578 6.00792C40.2068 5.99792 40.2575 6.00057 40.3052 6.01563C40.353 6.0307 40.396 6.05768 40.4304 6.09403C40.4648 6.13037 40.4894 6.17485 40.5018 6.22332C40.5142 6.27179 40.5141 6.32264 40.5014 6.37104C40.5107 6.71961 40.5107 7.06725 40.5014 7.41396C40.4819 7.52287 40.4442 7.62771 40.3899 7.72414C40.845 7.72414 41.3 7.72414 41.7458 7.72414C42.1359 7.72414 42.1824 7.77244 42.1824 8.18107C42.1824 8.5897 42.1824 8.99368 42.1824 9.44132C43.1018 9.44132 43.9933 9.45153 44.8848 9.44132C45.5071 9.4311 45.5722 9.44879 45.5443 10.1072C45.535 10.3719 45.535 10.6384 45.5443 10.904C45.5318 10.9574 45.5331 11.0131 45.5485 11.0657C45.5638 11.1183 45.5926 11.1661 45.6318 11.2043C45.6711 11.2425 45.7196 11.2699 45.7726 11.2839C45.8256 11.2978 45.8813 11.2978 45.9343 11.2839C46.7144 11.2839 47.4945 11.2839 48.2746 11.2839H48.8876V12.9881H55.6022V14.7127H53.9397V16.4169H52.2588V16.4066Z" fill="white" stroke="black" stroke-width="1.5"/>
</svg>
